<?xml version="1.0" encoding="utf-8"?>
<!-- Generator: Adobe Illustrator 22.1.0, SVG Export Plug-In . SVG Version: 6.00 Build 0)  -->
<svg version="1.1" id="illustration" xmlns="http://www.w3.org/2000/svg" xmlns:xlink="http://www.w3.org/1999/xlink" x="0px"
	 y="0px" viewBox="0 0 706 904" style="enable-background:new 0 0 706 904;" xml:space="preserve">
<style type="text/css">
	.st0{opacity:7.000000e-02;fill:url(#SVGID_1_);enable-background:new    ;}
	.st1{opacity:7.000000e-02;fill:url(#SVGID_2_);enable-background:new    ;}
	.st2{opacity:0.4;fill:url(#SVGID_3_);enable-background:new    ;}
	.st3{opacity:0.4;fill:url(#SVGID_4_);enable-background:new    ;}
	.st4{opacity:0.3;fill:url(#SVGID_5_);enable-background:new    ;}
	.st5{fill:#F2994A;}
	.st6{opacity:0.15;fill:#FFFFFF;enable-background:new    ;}
	.st7{opacity:0.3;fill:url(#SVGID_6_);enable-background:new    ;}
	.st8{fill:#F2C94C;}
	.st9{opacity:0.3;fill:url(#SVGID_7_);enable-background:new    ;}
	.st10{opacity:0.2;fill:url(#SVGID_8_);enable-background:new    ;}
</style>
<linearGradient id="SVGID_1_" gradientUnits="userSpaceOnUse" x1="646.5589" y1="34.7092" x2="340.5139" y2="313.3634" gradientTransform="matrix(1 0 0 1 0 112)">
	<stop  offset="0" style="stop-color:#FFFFFF"/>
	<stop  offset="1" style="stop-color:#FFFFFF;stop-opacity:0"/>
</linearGradient>
<path class="st0" d="M636.7,431.2c26-22.3,42-63.8,42-119.8c0-115-67.4-247.2-150.4-294.2c-83.1-47.1-149.3,8.1-148.5,124
	c0.4,55.1,16.2,114.2,41.7,165.6c19.7,39.6,32.6,83.8,36.9,124.9c1.7,17.6,12.2,35.8,24.3,42.8l92.8,53.5
	c12.2,7.1,22.6,0.7,24.5-14.8C604.2,477.1,616.9,448.3,636.7,431.2z"/>
<linearGradient id="SVGID_2_" gradientUnits="userSpaceOnUse" x1="804.9393" y1="208.6074" x2="498.8943" y2="487.2622" gradientTransform="matrix(1 0 0 1 0 112)">
	<stop  offset="0" style="stop-color:#FFFFFF"/>
	<stop  offset="1" style="stop-color:#FFFFFF;stop-opacity:0"/>
</linearGradient>
<path class="st1" d="M598.2,621.2v-24.6c0-13.2-7.6-28.1-17.1-33.8l-104.2-60.2c-9.5-5.5-17.1,0.7-17.1,13.9v24.6
	c0,19.8,10.4,41.8,24,52.6l90.6,52.3C587.8,651.1,598.2,640.8,598.2,621.2z"/>
<linearGradient id="SVGID_3_" gradientUnits="userSpaceOnUse" x1="596.5048" y1="74.4509" x2="290.4598" y2="353.105" gradientTransform="matrix(1 0 0 1 0 112)">
	<stop  offset="0" style="stop-color:#FFFFFF"/>
	<stop  offset="1" style="stop-color:#FFFFFF;stop-opacity:0"/>
</linearGradient>
<path class="st2" d="M586.6,471c26-22.3,42-63.8,42-119.8c0-115-67.4-247.2-150.4-294.2C395,9.9,328.9,65.1,329.7,181
	c0.4,55.1,16.2,114.2,41.7,165.6c19.7,39.6,32.6,83.8,36.9,124.9c1.7,17.6,12.2,35.8,24.3,42.8l92.8,53.5
	c12.2,7.1,22.6,0.7,24.5-14.8C554.2,516.9,566.9,488,586.6,471z"/>
<linearGradient id="SVGID_4_" gradientUnits="userSpaceOnUse" x1="754.9388" y1="248.4071" x2="448.8948" y2="527.0618" gradientTransform="matrix(1 0 0 1 0 112)">
	<stop  offset="0" style="stop-color:#FFFFFF"/>
	<stop  offset="1" style="stop-color:#FFFFFF;stop-opacity:0"/>
</linearGradient>
<path class="st3" d="M548.2,661v-24.6c0-13.2-7.6-28.1-17.1-33.8l-104.2-60.2c-9.5-5.5-17.1,0.7-17.1,13.9v24.6
	c0,19.8,10.4,41.8,24,52.6l90.6,52.3C537.8,690.9,548.2,680.6,548.2,661z"/>
<linearGradient id="SVGID_5_" gradientUnits="userSpaceOnUse" x1="264.3913" y1="495.4544" x2="110.7413" y2="615.7584" gradientTransform="matrix(1 0 0 1 0 112)">
	<stop  offset="0" style="stop-color:#FFFFFF"/>
	<stop  offset="1" style="stop-color:#FFFFFF;stop-opacity:0"/>
</linearGradient>
<path class="st4" d="M329.3,669.6L31.7,497.8l0.1,155.1l271.3,156.6l26.3,38.9L329.3,669.6z"/>
<path class="st5" d="M0,558.3v-42.1L112.4,581v42.1L0,558.3z"/>
<path class="st6" d="M252.8,663.2l-65.2-37.6v13.6l65.2,37.6V663.2z"/>
<path class="st6" d="M252.8,690.5L127.1,618v13.6l125.7,72.5V690.5z"/>
<path class="st6" d="M252.8,717.7l-152.3-87.9v13.6l152.3,87.9V717.7z"/>
<path class="st5" d="M268.9,686.7c0,12.8,7.6,27.5,16.9,32.9s16.9-0.6,16.9-13.4c0-12.8-7.6-27.5-16.9-32.9
	C276.4,667.9,268.9,673.9,268.9,686.7z"/>
<linearGradient id="SVGID_6_" gradientUnits="userSpaceOnUse" x1="480.304" y1="469.3506" x2="518.7738" y2="781.3805" gradientTransform="matrix(1 0 0 1 0 112)">
	<stop  offset="0" style="stop-color:#FFFFFF"/>
	<stop  offset="1" style="stop-color:#FFFFFF;stop-opacity:0"/>
</linearGradient>
<path class="st7" d="M352.5,576.3L650,748.1l0.1,155.1L378.8,746.6l-26.2,8.6L352.5,576.3z"/>
<path class="st8" d="M563.5,775.4v-42.1l112.3,64.8v42.1L563.5,775.4z"/>
<path class="st6" d="M429,658.3l65.2,37.6v13.6L429,671.9V658.3z"/>
<path class="st6" d="M429,685.5l117.7,67.9V767L429,699.2V685.5z"/>
<path class="st6" d="M429,712.8l152.3,87.9v13.6L429,726.4V712.8z"/>
<path class="st8" d="M412.9,663.2c0,12.8-7.6,18.8-16.9,13.4c-9.3-5.4-16.9-20.1-16.9-32.9c0-12.8,7.6-18.8,16.9-13.4
	C405.4,635.7,412.9,650.4,412.9,663.2z"/>
<path class="st6" d="M684.5,563.3l7.5,16.6l-63.2,14.7l65.7,91.5L687,694l-80.7-112.5L684.5,563.3z"/>
<path class="st5" d="M705.4,581.9c0,12.9-7.6,19-16.9,13.7c-9.3-5.4-16.9-20.2-16.9-33.2c0-12.9,7.6-19,16.9-13.7
	C697.8,554.1,705.4,569,705.4,581.9z"/>
<path class="st5" d="M705.4,696.5c0,12.9-7.6,19-16.9,13.7c-9.3-5.4-16.9-20.2-16.9-33.2c0-12.9,7.6-19,16.9-13.7
	C697.8,668.8,705.4,683.6,705.4,696.5z"/>
<path class="st8" d="M633.3,596.1c0,12.9-7.6,19-16.9,13.7c-9.3-5.4-16.9-20.2-16.9-33.2c0-12.9,7.6-19,16.9-13.7
	C625.7,568.3,633.3,583.2,633.3,596.1z"/>
<linearGradient id="SVGID_7_" gradientUnits="userSpaceOnUse" x1="347.3217" y1="168.9671" x2="198.5547" y2="426.7061" gradientTransform="matrix(1 0 0 1 0 112)">
	<stop  offset="0" style="stop-color:#FFFFFF"/>
	<stop  offset="1" style="stop-color:#FFFFFF;stop-opacity:0"/>
</linearGradient>
<path class="st9" d="M161.8,253.6l167.6,96.7v310.5l-167.6-96.7L161.8,253.6z"/>
<path class="st6" d="M178.3,437.9l134.6,77.7v13.6l-134.6-77.7L178.3,437.9z"/>
<path class="st6" d="M187.7,469.9l115.7,66.8v13.6l-115.7-66.8V469.9z"/>
<path class="st8" d="M236.6,525.4L120,458.1v34.7l116.6,67.3V525.4z"/>
<path class="st8" d="M264.7,375.7c0,15-8.7,22.1-19.4,15.9c-10.7-6.3-19.4-23.5-19.4-38.6c0-15,8.7-22.1,19.4-15.9
	C256,343.4,264.7,360.7,264.7,375.7z"/>
<path class="st8" d="M245.2,403.7c-17.3-10.1-31.6-0.6-34.1,21.1c-0.4,3.8,2.4,8.8,5.9,10.8l56.4,33c3.5,2,6.3,0.4,5.9-3.9
	C276.9,439.9,262.5,413.8,245.2,403.7z"/>
<linearGradient id="SVGID_8_" gradientUnits="userSpaceOnUse" x1="420.782" y1="715.2107" x2="376.019" y2="753.8807" gradientTransform="matrix(1 0 0 1 0 112)">
	<stop  offset="0" style="stop-color:#FFFFFF"/>
	<stop  offset="1" style="stop-color:#FFFFFF;stop-opacity:0"/>
</linearGradient>
<path class="st10" d="M408,884.6c-60.5-77.8-16.7-106,0-60.4C424.7,798,468.5,876.6,408,884.6z"/>
</svg>
